<svg xmlns="http://www.w3.org/2000/svg" xmlns:xlink="http://www.w3.org/1999/xlink" viewBox="0 0 58.41 58.41"><defs><style>.cls-1{fill:#fff;}.cls-2{fill:url(#linear-gradient);}.cls-3{fill:url(#linear-gradient-2);}</style><linearGradient id="linear-gradient" x1="29.21" y1="13.63" x2="29.21" y2="35.05" gradientUnits="userSpaceOnUse"><stop offset="0" stop-color="#d90000"/><stop offset="0.5" stop-color="#ff8400"/><stop offset="1" stop-color="#fd0"/></linearGradient><linearGradient id="linear-gradient-2" x1="33.1" y1="22.39" x2="38.94" y2="22.39" xlink:href="#linear-gradient"/></defs><g id="Layer_2" data-name="Layer 2"><g id="Layer_1-2" data-name="Layer 1"><path class="cls-1" d="M57.44,0H1A1,1,0,0,0,0,1V57.44a1,1,0,0,0,1,1H57.44a1,1,0,0,0,1-1V1A1,1,0,0,0,57.44,0Zm-1,56.47H2V9.74H56.47Zm0-48.68H2V2H56.47Z"/><circle class="cls-1" cx="12.66" cy="4.87" r="0.97"/><path class="cls-1" d="M8.76,5.84a1,1,0,1,0-1-1A1,1,0,0,0,8.76,5.84Z"/><path class="cls-1" d="M4.87,5.84a1,1,0,0,0,0-1.95,1,1,0,1,0,0,1.95Z"/><path class="cls-1" d="M51.6,5.84h1.95a1,1,0,0,0,0-1.95H51.6a1,1,0,0,0,0,1.95Z"/><path class="cls-2" d="M6.81,35.05H51.6a1,1,0,0,0,1-1V14.6a1,1,0,0,0-1-1H6.81a1,1,0,0,0-1,1V34.08A1,1,0,0,0,6.81,35.05Zm6.25-1.95,3.73-3.72,4.27,1.7a1,1,0,0,0,1.05-.21l5.27-5.28,8.1,5.4a1,1,0,0,0,.9.09l4.32-1.72,4.37,3.74ZM7.79,15.58H50.63V33.1H48.07l-6.55-5.61a1,1,0,0,0-1-.16l-4.39,1.76L27.8,23.53a1,1,0,0,0-1.23.12L21.18,29l-4.27-1.71a1,1,0,0,0-1.05.22L10.31,33.1H7.79Z"/><path class="cls-1" d="M6.81,40.89H18.5a1,1,0,0,0,0-2H6.81a1,1,0,0,0,0,2Z"/><path class="cls-3" d="M36,25.31a2.92,2.92,0,1,0-2.92-2.92A2.91,2.91,0,0,0,36,25.31Zm0-3.89a1,1,0,1,1-1,1A1,1,0,0,1,36,21.42Z"/><path class="cls-1" d="M6.81,46.73H26.29a1,1,0,0,0,0-1.95H6.81a1,1,0,0,0,0,1.95Z"/><path class="cls-1" d="M6.81,52.57H26.29a1,1,0,1,0,0-1.94H6.81a1,1,0,0,0,0,1.94Z"/><path class="cls-1" d="M51.6,44.78H32.13a1,1,0,1,0,0,1.95H51.6a1,1,0,0,0,0-1.95Z"/><path class="cls-1" d="M51.6,50.63H32.13a1,1,0,1,0,0,1.94H51.6a1,1,0,0,0,0-1.94Z"/></g></g></svg>