<svg xmlns="http://www.w3.org/2000/svg" viewBox="0 0 165.99 29.44"><defs><style>.cls-1{fill:#fff;}</style></defs><g id="Layer_2" data-name="Layer 2"><g id="Layer_1-2" data-name="Layer 1"><path class="cls-1" d="M0,0H14c6.52,0,9.34,3.41,9.34,7.74a6.68,6.68,0,0,1-5,6.39,6.4,6.4,0,0,1,5.2,6.55c0,4.58-2.95,8-9.37,8H0ZM11.38,11.26c2.37,0,3.48-1.25,3.48-2.91,0-2-1.43-2.86-3.48-2.86H8.56v5.77ZM8.56,16.83v5.85h2.9c2.95,0,3.49-1.85,3.49-2.94,0-1.65-1.12-2.91-3.49-2.91Z"/><path class="cls-1" d="M25.59,0h8.52V18.63a3.46,3.46,0,1,0,6.92,0V0h8.51V18.71c0,6.72-5.07,10.73-12,10.73-7.5,0-11.95-4.58-11.95-10.73Z"/><polygon class="cls-1" points="70.06 16.99 70.06 0 78.61 0 78.61 28.66 69.93 28.66 60.56 12.24 60.56 28.66 52.04 28.66 52.04 0 60.72 0 70.06 16.99"/><polygon class="cls-1" points="89.96 16.99 89.96 28.66 81.44 28.66 81.44 0 89.96 0 89.96 11.71 97.9 0 107.89 0 97.37 14.33 107.89 28.66 97.9 28.66 89.96 16.99"/><polygon class="cls-1" points="117.87 6.39 117.87 11.38 127.82 11.38 127.82 17.48 117.87 17.48 117.87 22.27 127.82 22.27 127.82 28.66 109.35 28.66 109.35 0 127.82 0 127.82 6.39 117.87 6.39"/><path class="cls-1" d="M130.08,0h13.76a10.43,10.43,0,0,1,10.77,10.69,10.43,10.43,0,0,1-5.24,9.25l5.73,8.72h-10l-4.87-7.33h-1.6v7.33h-8.52Zm12,14.74a3.81,3.81,0,0,0,3.81-4.05,3.78,3.78,0,0,0-3.77-4.06H138.6v8.11Z"/><path class="cls-1" d="M156,24.24a5,5,0,1,1,5,4.91A4.92,4.92,0,0,1,156,24.24Z"/></g></g></svg>