<svg xmlns="http://www.w3.org/2000/svg" viewBox="0 0 78.84 78.84"><defs><style>.cls-1{fill:#fff;}</style></defs><g id="Layer_2" data-name="Layer 2"><g id="Layer_1-2" data-name="Layer 1"><path class="cls-1" d="M67.29,11.55a39.4,39.4,0,0,0-55.74,0,39.4,39.4,0,0,0,0,55.74,39.4,39.4,0,0,0,55.74,0,39.4,39.4,0,0,0,0-55.74ZM39.42,4.62A34.57,34.57,0,0,1,64,14.81a35,35,0,0,1,5.37,6.9h-30a17.74,17.74,0,0,0-17.3,13.92L12,18a37.5,37.5,0,0,1,2.85-3.22A34.57,34.57,0,0,1,39.42,4.62Zm13.09,34.8A13.09,13.09,0,1,1,39.42,26.33,13.11,13.11,0,0,1,52.51,39.42Zm-47.89,0A34.54,34.54,0,0,1,9.1,22.31S24,48.15,24,48.18a17.67,17.67,0,0,0,20.75,8.11L34.63,73.89a34.81,34.81,0,0,1-30-34.47ZM64,64A34.52,34.52,0,0,1,39.78,74.21L54.65,48.45l.05-.09a18.48,18.48,0,0,0,2.43-8.94,17.66,17.66,0,0,0-5.8-13.09H71.68A34.84,34.84,0,0,1,64,64Z"/></g></g></svg>