<svg xmlns="http://www.w3.org/2000/svg" viewBox="0 0 59.81 64.73"><defs><style>.cls-1{fill:#fff;}</style></defs><g id="Layer_2" data-name="Layer 2"><g id="Layer_1-2" data-name="Layer 1"><path class="cls-1" d="M59.81,30.77a32.22,32.22,0,0,0-3.76-16,28.31,28.31,0,0,0-10.63-11A29.45,29.45,0,0,0,30.45,0a31.51,31.51,0,0,0-10,1.55A26.86,26.86,0,0,0,12.37,5.8a31.06,31.06,0,0,0-6.06,6.36A33.42,33.42,0,0,0,2.15,20,40.38,40.38,0,0,0,0,28.68,40.69,40.69,0,0,1,11.36,17.76,32.24,32.24,0,0,1,19.43,14a35,35,0,0,1,9.39-1.61l.79,0a13.12,13.12,0,0,1,2,.31c.82.18,1.72.43,2.71.74a10.53,10.53,0,0,1,2.91,1.48,12.87,12.87,0,0,1,2.55,2.4A9.47,9.47,0,0,1,41.51,21a14.17,14.17,0,0,1,.29,5.06h-23A23.33,23.33,0,0,1,20.5,20.3a22.39,22.39,0,0,1,2.82-4.53,27.87,27.87,0,0,0-11.75,9.69,25.53,25.53,0,0,0-4,14.89,23.64,23.64,0,0,0,4.5,13.46,24,24,0,0,0,11.26,9,31.16,31.16,0,0,0,11.43,1.92,44.87,44.87,0,0,0,11.3-1.38A33.11,33.11,0,0,0,54.35,60V46.39a24.32,24.32,0,0,1-6.28,3.06,37.64,37.64,0,0,1-7.52,1.68,28.34,28.34,0,0,1-7.7-.11A23.35,23.35,0,0,1,26,49a12,12,0,0,1-4.94-4.43,12.69,12.69,0,0,1-1.93-7H59.81Z"/><path class="cls-1" d="M0,28.75H0v-.07A.43.43,0,0,1,0,28.75Z"/></g></g></svg>