<svg xmlns="http://www.w3.org/2000/svg" viewBox="0 0 78.89 74.22"><defs><style>.cls-1{fill:#fff;}</style></defs><g id="Layer_2" data-name="Layer 2"><g id="Layer_1-2" data-name="Layer 1"><path class="cls-1" d="M63.31,20.3a1.18,1.18,0,0,0-.11-.19A12.83,12.83,0,0,0,60.41,17,27.34,27.34,0,0,0,56,14.28a1.55,1.55,0,0,0,1-1.08,1.58,1.58,0,0,0-.53-1.63,24.68,24.68,0,0,0-34.74,3.78A1.56,1.56,0,0,0,21.5,17a1.58,1.58,0,0,0,1.32.94,17.62,17.62,0,0,1,2.35.28,1.41,1.41,0,0,0,1.47-.29A15.38,15.38,0,0,1,29.82,16a5.63,5.63,0,0,0-.36,3.51,1.52,1.52,0,0,0,.2.47,8.67,8.67,0,0,0,4.22,3.32,14.87,14.87,0,0,0,2.88.56l.33,0a52,52,0,0,1-5,3.51,1.54,1.54,0,0,0-.74,1.38l.1,3.29a4.64,4.64,0,0,0-3,.52,3.05,3.05,0,0,0-1.37,2.44,7,7,0,0,0,2.62,5.64A7.25,7.25,0,0,0,36.39,42c4.42-1.19,6.36-1.61,7.72-.87a3.71,3.71,0,0,1,1,.79,15.12,15.12,0,0,0-3.75,1.42c-.46.23-.91.48-1.39.75-2.2,1.23-4.47,2.5-7.84,1.62a1.58,1.58,0,0,0-1.47,2.68c.27.24,5.71,5.18,12.35,5.18a12.6,12.6,0,0,0,3.78-.56,19.33,19.33,0,0,0,7.82-4.62,1.56,1.56,0,0,0,.78,1,1.58,1.58,0,0,0,1.73-.18c.24-.2,2.39-2.08,3.37-6.37A24.26,24.26,0,0,0,61,38.25a1.62,1.62,0,0,0,1,0,1.56,1.56,0,0,0,1.13-1.24,46.75,46.75,0,0,0,.75-8.39l0-.31a1.56,1.56,0,0,0,.69-.22,1.58,1.58,0,0,0,.74-1.61A24.79,24.79,0,0,0,63.31,20.3ZM60,23.77a1.51,1.51,0,0,0,0,2.07,6.55,6.55,0,0,1,.73,3,27.17,27.17,0,0,1-.23,4.27l0,0a1.57,1.57,0,0,0-2.75,1.21,27,27,0,0,1-.32,7.83,1.76,1.76,0,0,0-.58-.29,1.56,1.56,0,0,0-1.82.88,15.36,15.36,0,0,1-9.17,7.33c-3.24,1-6.49,0-8.93-1.19a18.39,18.39,0,0,0,4.58-2c.44-.25.86-.48,1.25-.68C45,45,46,44.94,46.83,44.94a2,2,0,0,0,1.93-1.48c.44-1.71-1.29-4-3.14-5-2.5-1.37-5.17-.73-10,.58a4.09,4.09,0,0,1-3.84-.71,3.94,3.94,0,0,1-1.49-3v0a4.9,4.9,0,0,1,2.33.33A1.53,1.53,0,0,0,34,35.39a1.56,1.56,0,0,0,.66-1.33l-.14-4.45c.69-.45,1.76-1.16,2.81-1.93,2.93-2.12,4.36-3.56,3.58-5.12-.7-1.4-2.27-1.59-3.79-1.79a11.22,11.22,0,0,1-2.28-.43,5.49,5.49,0,0,1-2.39-1.79,2.26,2.26,0,0,1,.23-1.27,13.23,13.23,0,0,1,2.75-2.54,1.57,1.57,0,0,0-.75-2.84,12.55,12.55,0,0,0-4.93.79c-.38.12-.74.26-1.09.41a21.54,21.54,0,0,1,22.64-1.2l-1.21.2a1.57,1.57,0,0,0-.2,3.05,31,31,0,0,1,8.56,4.35,9.61,9.61,0,0,1,2,2.24c.23.5.45,1,.64,1.53A1.51,1.51,0,0,0,60,23.77Z"/><path class="cls-1" d="M78.65,25.27a1.57,1.57,0,0,0-2.46-1.1,55,55,0,0,0-1.37-6.53,19.09,19.09,0,0,0-4.15-7.21A1.58,1.58,0,0,0,68,11.86a21.31,21.31,0,0,0-4.77-3.3c-.57-.27-1.13-.53-1.67-.76A31.2,31.2,0,0,0,25.4,4.14a31.64,31.64,0,0,0-10.16,9.34,4.49,4.49,0,0,1-.67-1.12v0a21.93,21.93,0,0,1-1.12-3.86,1.56,1.56,0,0,0-2.63-.85c-4.59,4.4-4.51,11-4.33,13.3a35.1,35.1,0,0,0-3.66,4.88C.67,29.26,0,35.17,0,35.42A1.56,1.56,0,0,0,.92,37a1.53,1.53,0,0,0,1,.12,46.83,46.83,0,0,0-.29,7.28,1.57,1.57,0,0,0,2.5,1.21A37.68,37.68,0,0,0,15.41,64.56a37.27,37.27,0,0,0,23.37,9.62c.59,0,1.19,0,1.77,0a37.23,37.23,0,0,0,11.84-1.93,39,39,0,0,0,13-7.49,35.2,35.2,0,0,0,9-12.2,49,49,0,0,0,3.75-12.9A57.75,57.75,0,0,0,78.65,25.27Zm-3.58,14c-1.07,6.9-4,16.53-11.72,23.2a34.31,34.31,0,0,1-45.8-.16A35.5,35.5,0,0,1,7.93,47.6a25.18,25.18,0,0,1-1.41-7.05A1.57,1.57,0,0,0,5.3,39,1.39,1.39,0,0,0,5,39H4.83c.07-.74.16-1.46.28-2.09a19.1,19.1,0,0,1,1.25-4.17,1.57,1.57,0,0,0-.51-2,1.55,1.55,0,0,0-1.69-.07,13.51,13.51,0,0,1,1.33-3.18,31.58,31.58,0,0,1,3.75-4.9,1.58,1.58,0,0,0,.44-1.34,16.18,16.18,0,0,1,1.51-9c.14.41.29.84.46,1.26a8,8,0,0,0,3.08,3.66,1.57,1.57,0,0,0,2.18-.51,28.08,28.08,0,0,1,42.76-6.36,1.32,1.32,0,0,0,.42.27c.57.25,1.19.52,1.8.82h0c3.62,1.68,7.58,6.44,7.62,6.49a1.58,1.58,0,0,0,1.9.42,2.26,2.26,0,0,0,.26-.16l.12.39a82.8,82.8,0,0,1,1.93,11A1.56,1.56,0,0,0,75.05,31a1.46,1.46,0,0,0,.69-.05A58.82,58.82,0,0,1,75.07,39.22Z"/><path class="cls-1" d="M61.71,58.35a1.58,1.58,0,0,0-2.22-.17c-.34.3-.7.6-1.06.88a1.57,1.57,0,1,0,2,2.47c.39-.31.78-.63,1.16-1A1.57,1.57,0,0,0,61.71,58.35Z"/><path class="cls-1" d="M54.85,63.36a1.57,1.57,0,0,0-2.1-.74A28.59,28.59,0,0,1,21.1,58.05,1.57,1.57,0,1,0,19,60.35,31.41,31.41,0,0,0,35,68.13a32.29,32.29,0,0,0,5.35.45,31.56,31.56,0,0,0,13.73-3.13A1.57,1.57,0,0,0,54.85,63.36Z"/></g></g></svg>