<svg xmlns="http://www.w3.org/2000/svg" xmlns:xlink="http://www.w3.org/1999/xlink" viewBox="0 0 69.52 53.3"><defs><style>.cls-1{fill:url(#linear-gradient);}.cls-2{fill:none;}.cls-3{fill:#fff;}</style><linearGradient id="linear-gradient" x1="34.75" y1="15.08" x2="34.75" y2="50.98" gradientUnits="userSpaceOnUse"><stop offset="0" stop-color="#d90000"/><stop offset="0.5" stop-color="#ff8400"/><stop offset="1" stop-color="#fd0"/></linearGradient></defs><g id="Layer_2" data-name="Layer 2"><g id="Layer_1-2" data-name="Layer 1"><path class="cls-1" d="M67.19,45.75l-13-14.66a1.2,1.2,0,0,0-1.73,0L44,40.55,21.72,15.45a1.2,1.2,0,0,0-1.73,0L2.32,35.33v3.49L20.86,18,42.48,42.29,34.75,51h3.1L53.3,33.61,66.39,48.34l0,0,0,.06A4.4,4.4,0,0,0,67.19,45.75Z"/><path class="cls-2" d="M20.86,18,2.32,38.82v6.72A5.45,5.45,0,0,0,7.76,51h27l7.73-8.69Z"/><path class="cls-2" d="M53.3,33.61,37.85,51H61.76c.22,0,.44,0,.65,0l.18,0c.16,0,.31-.06.47-.09l.17,0,.52-.17.08,0a6.19,6.19,0,0,0,.58-.28l.11-.07c.14-.09.28-.17.41-.27l.16-.12a2.67,2.67,0,0,0,.36-.31l.12-.1A6,6,0,0,0,66,49l.07-.1a4.27,4.27,0,0,0,.3-.44l0-.08Z"/><circle class="cls-2" cx="45.19" cy="18.54" r="4.63"/><path class="cls-2" d="M61.76,2.32h-54A5.45,5.45,0,0,0,2.32,7.76V35.33L20,15.45a1.2,1.2,0,0,1,1.73,0L44,40.55l8.4-9.46a1.2,1.2,0,0,1,1.73,0l13,14.66c0-.07,0-.14,0-.21V7.76A5.45,5.45,0,0,0,61.76,2.32ZM45.19,25.49a7,7,0,1,1,7-6.95A7,7,0,0,1,45.19,25.49Z"/><path class="cls-3" d="M61.76,0h-54A7.77,7.77,0,0,0,0,7.76V45.54A7.31,7.31,0,0,0,.16,47.1a6.17,6.17,0,0,0,.19.74,7.73,7.73,0,0,0,5.85,5.3,7.93,7.93,0,0,0,1.56.16h54a6.8,6.8,0,0,0,1-.08l.25,0a7.26,7.26,0,0,0,.9-.2L64,53A8.89,8.89,0,0,0,65,52.6l.21-.1a7.43,7.43,0,0,0,.73-.4L66,52a7.17,7.17,0,0,0,.76-.57l.21-.19a7.14,7.14,0,0,0,.54-.56l.15-.16a7.64,7.64,0,0,0,.58-.79l.11-.19a6.78,6.78,0,0,0,.45-.84l0-.05h0a7.82,7.82,0,0,0,.65-3.1V7.76A7.77,7.77,0,0,0,61.76,0ZM67.2,45.54c0,.07,0,.14,0,.21a4.4,4.4,0,0,1-.83,2.67,4.27,4.27,0,0,1-.3.44L66,49a6,6,0,0,1-.42.46l-.12.1a2.67,2.67,0,0,1-.36.31l-.16.12c-.13.1-.27.18-.41.27l-.11.07a6.19,6.19,0,0,1-.58.28l-.08,0-.52.17-.17,0c-.16,0-.31.07-.47.09l-.18,0c-.21,0-.43,0-.65,0h-54a5.45,5.45,0,0,1-5.44-5.44V7.76A5.45,5.45,0,0,1,7.76,2.32h54A5.45,5.45,0,0,1,67.2,7.76Z"/><path class="cls-3" d="M45.19,11.59a7,7,0,1,0,7,7A7,7,0,0,0,45.19,11.59Zm0,11.58a4.64,4.64,0,1,1,4.63-4.63A4.64,4.64,0,0,1,45.19,23.17Z"/><path class="cls-3" d="M66.39,48.34l0,.08,0-.06Z"/></g></g></svg>