<svg xmlns="http://www.w3.org/2000/svg" xmlns:xlink="http://www.w3.org/1999/xlink" viewBox="0 0 69.16 70.02"><defs><style>.cls-1{fill:url(#linear-gradient);}.cls-2{fill:#fff;}.cls-3{fill:url(#linear-gradient-2);}</style><linearGradient id="linear-gradient" x1="27.96" y1="17.81" x2="27.96" y2="38.11" gradientUnits="userSpaceOnUse"><stop offset="0" stop-color="#d90000"/><stop offset="0.5" stop-color="#ff8400"/><stop offset="1" stop-color="#fd0"/></linearGradient><linearGradient id="linear-gradient-2" x1="51.12" y1="70.02" x2="51.12" y2="33.94" xlink:href="#linear-gradient"/></defs><g id="Layer_2" data-name="Layer 2"><g id="Layer_1-2" data-name="Layer 1"><path class="cls-1" d="M38.11,28A10.16,10.16,0,1,0,28,38.11,10.16,10.16,0,0,0,38.11,28ZM28,36.11A8.15,8.15,0,1,1,36.11,28,8.17,8.17,0,0,1,28,36.11Z"/><path class="cls-2" d="M31.41,52a5.07,5.07,0,0,1,4.15-5l.56-.11.2-.53c.1-.29.23-.58.35-.87l.24-.51-.32-.47a5.07,5.07,0,0,1,.59-6.45,5.07,5.07,0,0,1,6.47-.61l.46.32.51-.23c.29-.13.58-.25.88-.36L46,37l.1-.55a5.07,5.07,0,0,1,6.63-3.87l.5.17.42-.32A5.52,5.52,0,0,0,55.92,28a5.58,5.58,0,0,0-5.58-5.57h-2a21.39,21.39,0,0,0-2-4.9l1.42-1.42a5.57,5.57,0,0,0-7.88-7.88L38.43,9.61a21.39,21.39,0,0,0-4.9-2v-2a5.57,5.57,0,0,0-11.14,0v2a21.39,21.39,0,0,0-4.9,2L16.07,8.19a5.57,5.57,0,0,0-7.88,7.88l1.42,1.42a21.39,21.39,0,0,0-2,4.9h-2a5.57,5.57,0,0,0,0,11.14h2a21.39,21.39,0,0,0,2,4.9L8.19,39.85a5.57,5.57,0,0,0,7.88,7.88l1.42-1.42a21.39,21.39,0,0,0,4.9,2v2A5.58,5.58,0,0,0,28,55.92a5.51,5.51,0,0,0,3.4-1.18l.56-.44-.23-.68A5.28,5.28,0,0,1,31.41,52Zm-1.82,1.53a3.46,3.46,0,0,1-1.63.41,3.57,3.57,0,0,1-3.57-3.58V46.76l-.78-.18a18.86,18.86,0,0,1-5.74-2.38l-.68-.42-2.53,2.54a3.67,3.67,0,0,1-5.06,0,3.6,3.6,0,0,1,0-5.06l2.54-2.53-.42-.68a19.14,19.14,0,0,1-2.39-5.74l-.18-.78H5.57a3.57,3.57,0,0,1,0-7.14H9.16l.18-.78a18.62,18.62,0,0,1,2.38-5.74l.42-.68L9.6,14.66a3.57,3.57,0,1,1,5.06-5.05l2.53,2.53.68-.42a19.14,19.14,0,0,1,5.74-2.39l.78-.18V5.57a3.57,3.57,0,0,1,7.14,0V9.15l.78.18a19.14,19.14,0,0,1,5.74,2.39l.68.42L41.26,9.6a3.67,3.67,0,0,1,5.06,0,3.6,3.6,0,0,1,0,5.06l-2.54,2.53.42.68a19.14,19.14,0,0,1,2.39,5.74l.18.78h3.57a3.56,3.56,0,0,1,2.51,6.1,6.9,6.9,0,0,0-1.73-.22,7.08,7.08,0,0,0-6.83,5.22,7.08,7.08,0,0,0-9.66,9.66A7.07,7.07,0,0,0,29.41,52,6.66,6.66,0,0,0,29.59,53.51Z"/><path class="cls-2" d="M51.12,46a6,6,0,1,0,6,6A6,6,0,0,0,51.12,46Zm2.8,8.76a3.93,3.93,0,0,1-2.8,1.16,4,4,0,1,1,4-4A3.93,3.93,0,0,1,53.92,54.78Z"/><path class="cls-3" d="M65.76,48.58h-.89a13.88,13.88,0,0,0-1.62-3.92l.63-.62a3.42,3.42,0,0,0,0-4.81,3.49,3.49,0,0,0-4.82,0l-.62.62a14.05,14.05,0,0,0-3.92-1.62v-.89a3.4,3.4,0,0,0-6.8,0v.89a14.18,14.18,0,0,0-3.92,1.62l-.62-.62a3.47,3.47,0,0,0-4.81,0,3.39,3.39,0,0,0,0,4.81l.62.62a14.15,14.15,0,0,0-1.61,3.92h-.89a3.4,3.4,0,1,0,0,6.8h.89A14.15,14.15,0,0,0,39,59.3l-.62.62a3.4,3.4,0,0,0,0,4.82,3.48,3.48,0,0,0,4.81,0l.63-.62a14,14,0,0,0,3.91,1.62v.88a3.4,3.4,0,1,0,6.8,0v-.88a14.18,14.18,0,0,0,3.92-1.62l.62.62a3.5,3.5,0,0,0,4.82,0,3.43,3.43,0,0,0,0-4.82l-.63-.62a13.88,13.88,0,0,0,1.62-3.92h.89a3.4,3.4,0,0,0,0-6.8Zm0,4.8H63.23l-.15.82a12,12,0,0,1-1.93,4.67l-.47.68,1.78,1.79a1.39,1.39,0,0,1,0,2,1.43,1.43,0,0,1-2,0l-1.79-1.79L58,62a12.32,12.32,0,0,1-4.67,1.93l-.82.15v2.52a1.4,1.4,0,1,1-2.8,0V64.09l-.82-.15A12.21,12.21,0,0,1,44.24,62l-.69-.47-1.78,1.78a1.44,1.44,0,0,1-2,0,1.41,1.41,0,0,1-.41-1,1.39,1.39,0,0,1,.41-1l1.79-1.79-.47-.68a12,12,0,0,1-1.93-4.67L39,53.38H36.49a1.4,1.4,0,1,1,0-2.8H39l.15-.82a12.14,12.14,0,0,1,1.92-4.67l.48-.68-1.79-1.79a1.39,1.39,0,0,1-.41-1,1.43,1.43,0,0,1,.41-1,1.44,1.44,0,0,1,2,0l1.78,1.78.69-.47A12.21,12.21,0,0,1,48.9,40l.82-.15V37.34a1.4,1.4,0,1,1,2.8,0v2.53l.82.15A12.19,12.19,0,0,1,58,42l.68.48,1.79-1.79a1.43,1.43,0,0,1,2,0,1.39,1.39,0,0,1,0,2l-1.78,1.79.47.68a12,12,0,0,1,1.93,4.67l.15.82h2.53a1.4,1.4,0,0,1,0,2.8Z"/></g></g></svg>