<svg xmlns="http://www.w3.org/2000/svg" xmlns:xlink="http://www.w3.org/1999/xlink" viewBox="0 0 30 40"><defs><style>.cls-1{fill:none;}.cls-2{clip-path:url(#clip-path);}.cls-3{fill:#fff;}.cls-4{fill:url(#linear-gradient);}</style><clipPath id="clip-path" transform="translate(-5 0)"><rect class="cls-1" width="40" height="40"/></clipPath><linearGradient id="linear-gradient" x1="20.32" y1="3.34" x2="20.32" y2="38.33" gradientUnits="userSpaceOnUse"><stop offset="0" stop-color="#d90000"/><stop offset="0.5" stop-color="#ff8400"/><stop offset="1" stop-color="#fd0"/></linearGradient></defs><g id="Layer_2" data-name="Layer 2"><g id="Layer_1-2" data-name="Layer 1"><g class="cls-2"><path class="cls-3" d="M23.16,19.69a4.17,4.17,0,0,0-8,2.3c1.39,5.25,7,9.89,12,13.87a.84.84,0,0,0,1.17-.14.83.83,0,0,0-.13-1.17c-4.82-3.82-10.08-8.28-11.45-13a2.5,2.5,0,1,1,4.81-1.38c.91,3.16,5.44,7.08,9.74,10.48a.83.83,0,0,0,1.17-.13.82.82,0,0,0-.14-1.17C30.07,27.53,24.12,22.75,23.16,19.69Z" transform="translate(-5 0)"/><path class="cls-3" d="M29.48,17.54A10.83,10.83,0,0,0,8.75,23.82h0c1.37,4.76-1.56,6.07-2.5,6.37a.83.83,0,1,0,.5,1.58c2.55-.79,5-3.47,3.6-8.41A9.17,9.17,0,0,1,16.62,12h0a9.21,9.21,0,0,1,11.3,6.14,1.08,1.08,0,0,0,.08.19c.09.14.27.44,5.62,4.79A.83.83,0,0,0,34.8,23a.82.82,0,0,0-.12-1.17C32.74,20.28,29.89,17.93,29.48,17.54Z" transform="translate(-5 0)"/><path class="cls-3" d="M26.37,18.76a7.48,7.48,0,0,0-9.28-5.13,7.67,7.67,0,0,0-5.15,9.23c1.83,7.63.43,9.43-3,10.51A.83.83,0,1,0,9.42,35c4.82-1.5,6.05-4.69,4.16-12.46a6,6,0,0,1,4-7.27,5.83,5.83,0,0,1,7.22,4c.33,1.14,1.22,2.7,8,8.1A.84.84,0,0,0,34,27.19.82.82,0,0,0,33.85,26C27.66,21.12,26.6,19.57,26.37,18.76Z" transform="translate(-5 0)"/><path class="cls-3" d="M28.66,30.36c-2.85-2.1-7.5-5.73-8.7-9.75a.83.83,0,0,0-1.6.46c1.27,4.58,6.28,8.39,9.29,10.62a21.45,21.45,0,0,1,1.75,1.4.83.83,0,0,0,1.18-1.18C30,31.36,29.32,30.85,28.66,30.36Z" transform="translate(-5 0)"/><path class="cls-3" d="M24.15,36.16A5.42,5.42,0,0,0,20,33.34c-2.84,0-3.28,4.81-3.34,5.78a.83.83,0,0,0,.78.88h.06a.83.83,0,0,0,.83-.78C18.43,37.5,19.09,35,20,35c1.23,0,2.12,1.18,2.81,2.15.24.32.49.64.76.94a.83.83,0,0,0,1.18-1.18A6.16,6.16,0,0,1,24.15,36.16Z" transform="translate(-5 0)"/><path class="cls-3" d="M16.62,28.92a.83.83,0,0,0-1.58.5c.66,2.24-.69,6.61-2.8,7.28a.83.83,0,1,0,.5,1.59h0C16,37.25,17.56,31.67,16.62,28.92Z" transform="translate(-5 0)"/><path class="cls-3" d="M34.42,17.55c-1-.34-1.87-1.67-2.81-3.19-2-3.24-4.76-7.69-12.45-7.69A14.18,14.18,0,0,0,5,20.84a.83.83,0,1,0,1.66,0,12.51,12.51,0,0,1,12.5-12.5c6.76,0,9.13,3.82,11,6.89,1.12,1.81,2.09,3.36,3.71,3.9a.83.83,0,1,0,.53-1.58Z" transform="translate(-5 0)"/><path class="cls-3" d="M6.66,27.5a.84.84,0,0,0,.84-.83.78.78,0,0,0-.09-.37,7.72,7.72,0,0,1-.75-2.13.83.83,0,0,0-1.66,0A8.54,8.54,0,0,0,5.92,27,.83.83,0,0,0,6.66,27.5Z" transform="translate(-5 0)"/><path class="cls-3" d="M6.23,9.88a.84.84,0,0,0,1.15-.27h0c.72-1.2,4.28-4.6,11-4.6,6.4,0,11,3.24,11.78,4.59a.83.83,0,1,0,1.43-.86c-1.14-1.88-6.19-5.4-13.21-5.4C10.87,3.34,6.86,7.24,6,8.74A.83.83,0,0,0,6.23,9.88Z" transform="translate(-5 0)"/><path class="cls-3" d="M11.17,3.27c.38-.17.7-.34,1-.5,1.25-.65,2.16-1.1,6.16-1.1a19.48,19.48,0,0,1,7.92,1.27l1,.36a.85.85,0,0,0,1.11-.79.83.83,0,0,0-.57-.79c-.32-.11-.63-.22-.93-.34A22.77,22.77,0,0,0,18.33,0c-4.41.11-5.51.56-6.91,1.28-.28.15-.58.31-.93.46A.83.83,0,1,0,11.1,3.3Z" transform="translate(-5 0)"/><path class="cls-3" d="M33.37,14.43A.83.83,0,0,0,35,13.92a20.89,20.89,0,0,0-1.75-3.51.82.82,0,0,0-1.14-.28.83.83,0,0,0-.28,1.15A18.6,18.6,0,0,1,33.37,14.43Z" transform="translate(-5 0)"/><path class="cls-3" d="M9.16,35a.83.83,0,0,1-.83-.83.84.84,0,0,1,.59-.8c3.45-1.08,4.85-2.88,3-10.51a7.67,7.67,0,0,1,5.15-9.23,7.48,7.48,0,0,1,9.28,5.13c.23.81,1.21,2.46,7.47,7.26a.83.83,0,1,1-1,1.33l0,0c-6.76-5.5-7.72-7-8-8.09a5.81,5.81,0,0,0-7.22-4,6,6,0,0,0-4,7.27c1.9,7.77.67,11-4.17,12.47A.88.88,0,0,1,9.16,35Z" transform="translate(-5 0)"/><path class="cls-3" d="M30,33.34a.83.83,0,0,1-.59-.25c-.56-.49-1.15-1-1.75-1.4-3-2.23-7.94-6.06-9.29-10.62A.83.83,0,0,1,20,20.58v0c1.13,4,5.85,7.65,8.7,9.75a20.33,20.33,0,0,1,1.92,1.55.83.83,0,0,1,0,1.18A.88.88,0,0,1,30,33.34Z" transform="translate(-5 0)"/><path class="cls-3" d="M17.5,40h-.06a.83.83,0,0,1-.78-.88c.06-1,.5-5.78,3.34-5.78a5.44,5.44,0,0,1,4.16,2.82,5.48,5.48,0,0,0,.6.75.83.83,0,0,1-1.18,1.18,7.62,7.62,0,0,1-.76-.94c-.7-1-1.59-2.15-2.82-2.15-.91,0-1.57,2.5-1.67,4.22A.83.83,0,0,1,17.5,40Z" transform="translate(-5 0)"/><path class="cls-3" d="M5.83,21.67A.83.83,0,0,1,5,20.84,14.18,14.18,0,0,1,19.16,6.67c7.69,0,10.44,4.45,12.45,7.69,1,1.53,1.76,2.85,2.81,3.19a.82.82,0,0,1,.54,1,.83.83,0,0,1-1,.55h0c-1.62-.53-2.59-2.09-3.71-3.9-1.9-3.07-4.27-6.89-11-6.89a12.51,12.51,0,0,0-12.5,12.5A.83.83,0,0,1,5.83,21.67Z" transform="translate(-5 0)"/><path class="cls-3" d="M6.66,27.5A.83.83,0,0,1,5.92,27,8.54,8.54,0,0,1,5,24.17a.83.83,0,0,1,1.66,0,7.72,7.72,0,0,0,.75,2.13A.82.82,0,0,1,7,27.41.85.85,0,0,1,6.66,27.5Z" transform="translate(-5 0)"/><path class="cls-4" d="M27.68,36a.88.88,0,0,1-.51-.18c-5-4-10.62-8.62-12-13.87a4.17,4.17,0,0,1,8-2.3c1,3.06,6.88,7.88,9.17,9.63a.85.85,0,0,1,.17,1.17.83.83,0,0,1-1.17.17l0,0c-4.25-3.47-8.83-7.32-9.74-10.48a2.5,2.5,0,1,0-4.8,1.38c1.36,4.74,6.62,9.2,11.44,13a.83.83,0,0,1,.13,1.17.81.81,0,0,1-.65.32ZM6.5,31.82A.83.83,0,0,1,5.67,31a.81.81,0,0,1,.58-.79c.93-.3,3.87-1.61,2.5-6.37a10.84,10.84,0,0,1,7.41-13.4h0a10.89,10.89,0,0,1,13.31,7.11c.41.39,3.28,2.71,5.2,4.32A.82.82,0,0,1,34.77,23a.83.83,0,0,1-1.14.12C28.21,18.88,28.1,18.5,28,18.36a1.08,1.08,0,0,1-.08-.19,9.17,9.17,0,0,0-17.58,5.2h0c1.42,4.94-1,7.61-3.6,8.41A.73.73,0,0,1,6.5,31.82Zm6,6.51a.84.84,0,0,1-.84-.83.86.86,0,0,1,.58-.8c2.11-.68,3.5-5.05,2.8-7.28a.83.83,0,0,1,1.55-.59l0,.09c.89,2.77-.65,8.38-3.87,9.38A.54.54,0,0,1,12.5,38.33ZM30.83,10a.84.84,0,0,1-.72-.41C29.29,8.25,24.73,5,18.33,5,11.66,5,8.08,8.4,7.38,9.61a.86.86,0,0,1-1.14.32.85.85,0,0,1-.32-1.14l0,0c.94-1.48,4.92-5.4,12.38-5.4,7,0,12.07,3.52,13.21,5.4a.84.84,0,0,1-.28,1.15A.93.93,0,0,1,30.83,10Z" transform="translate(-5 0)"/><path class="cls-3" d="M27.49,3.34a.84.84,0,0,1-.27,0l-1-.36a19.65,19.65,0,0,0-7.92-1.27c-4,0-4.9.46-6.15,1.1-.3.16-.63.33-1,.5a.83.83,0,1,1-.67-1.52c.35-.16.65-.31.93-.46C12.82.58,13.93.12,18.33,0a22.15,22.15,0,0,1,8.5,1.37c.3.12.61.23.93.34a.82.82,0,0,1,.54,1A.84.84,0,0,1,27.49,3.34Z" transform="translate(-5 0)"/><path class="cls-3" d="M34.16,15a.84.84,0,0,1-.79-.58,20.21,20.21,0,0,0-1.59-3.15.83.83,0,0,1,.28-1.15.82.82,0,0,1,1.14.28A20.89,20.89,0,0,1,35,13.92.83.83,0,0,1,34.41,15,1.09,1.09,0,0,1,34.16,15Z" transform="translate(-5 0)"/></g></g></g></svg>