<svg xmlns="http://www.w3.org/2000/svg" viewBox="0 0 69.11 69.11"><defs><style>.cls-1{fill:none;stroke:#fff;stroke-miterlimit:10;}.cls-2{fill:#f2f2f2;}.cls-3{fill:#fff;}</style></defs><g id="Layer_2" data-name="Layer 2"><g id="Layer_1-2" data-name="Layer 1"><circle class="cls-1" cx="34.55" cy="34.55" r="34.05"/><path class="cls-2" d="M34.55,5.54a.41.41,0,0,1-.41-.42V3.22a.41.41,0,0,1,.41-.41.42.42,0,0,1,.42.41v1.9A.42.42,0,0,1,34.55,5.54Z"/><path class="cls-2" d="M34.55,66.3a.41.41,0,0,1-.41-.42V64a.41.41,0,0,1,.41-.41A.41.41,0,0,1,35,64v1.9A.42.42,0,0,1,34.55,66.3Z"/><path class="cls-2" d="M29.44,6A.42.42,0,0,1,29,5.64L28.7,3.77A.42.42,0,0,1,29,3.29a.41.41,0,0,1,.48.34l.33,1.87a.41.41,0,0,1-.34.48Z"/><path class="cls-2" d="M40,65.82a.42.42,0,0,1-.41-.34l-.33-1.87a.42.42,0,0,1,.82-.15l.33,1.87a.41.41,0,0,1-.33.48Z"/><path class="cls-2" d="M24.49,7.31A.41.41,0,0,1,24.1,7l-.65-1.78a.42.42,0,0,1,.25-.54.43.43,0,0,1,.53.25l.65,1.79a.41.41,0,0,1-.25.53A.34.34,0,0,1,24.49,7.31Z"/><path class="cls-2" d="M45.27,64.41a.42.42,0,0,1-.39-.28l-.65-1.78a.4.4,0,0,1,.25-.53.41.41,0,0,1,.53.24l.65,1.79a.41.41,0,0,1-.25.53A.35.35,0,0,1,45.27,64.41Z"/><path class="cls-2" d="M19.84,9.48a.42.42,0,0,1-.36-.2l-.95-1.65a.41.41,0,0,1,.15-.57.43.43,0,0,1,.57.15l.95,1.65a.42.42,0,0,1-.15.57A.54.54,0,0,1,19.84,9.48Z"/><path class="cls-2" d="M50.22,62.1a.41.41,0,0,1-.36-.21l-1-1.64a.42.42,0,1,1,.72-.42l.95,1.65a.41.41,0,0,1-.16.56A.36.36,0,0,1,50.22,62.1Z"/><path class="cls-2" d="M15.64,12.42a.43.43,0,0,1-.32-.14L14.1,10.82a.41.41,0,0,1,.63-.53L16,11.74a.43.43,0,0,1-.06.59A.41.41,0,0,1,15.64,12.42Z"/><path class="cls-2" d="M54.69,59a.41.41,0,0,1-.32-.15l-1.22-1.46a.42.42,0,0,1,.64-.53L55,58.28a.42.42,0,0,1,0,.59A.41.41,0,0,1,54.69,59Z"/><path class="cls-2" d="M12,16.05a.46.46,0,0,1-.27-.09l-1.45-1.23a.41.41,0,1,1,.53-.63l1.46,1.22a.41.41,0,0,1,.05.58A.41.41,0,0,1,12,16.05Z"/><path class="cls-2" d="M58.55,55.11a.47.47,0,0,1-.27-.1l-1.45-1.22a.42.42,0,0,1,.53-.64l1.46,1.22a.42.42,0,0,1,0,.59A.41.41,0,0,1,58.55,55.11Z"/><path class="cls-2" d="M9.07,20.25a.41.41,0,0,1-.21-.05l-1.65-.95a.43.43,0,0,1-.15-.57.41.41,0,0,1,.57-.15l1.65.95a.43.43,0,0,1,.15.57A.42.42,0,0,1,9.07,20.25Z"/><path class="cls-2" d="M61.68,50.63a.46.46,0,0,1-.2-.05l-1.65-.95a.42.42,0,0,1,.42-.72l1.64,1a.4.4,0,0,1,.15.56A.39.39,0,0,1,61.68,50.63Z"/><path class="cls-2" d="M6.9,24.9a.32.32,0,0,1-.14,0L5,24.23a.43.43,0,0,1-.25-.53.42.42,0,0,1,.54-.25L7,24.1a.41.41,0,0,1-.14.8Z"/><path class="cls-2" d="M64,45.68a.34.34,0,0,1-.14,0L62.06,45a.41.41,0,0,1-.24-.53.4.4,0,0,1,.53-.25l1.78.65a.41.41,0,0,1-.14.8Z"/><path class="cls-2" d="M5.57,29.86H5.5l-1.87-.33A.41.41,0,0,1,3.29,29a.42.42,0,0,1,.48-.34L5.64,29a.42.42,0,0,1,.34.48A.41.41,0,0,1,5.57,29.86Z"/><path class="cls-2" d="M65.41,40.41h-.08l-1.87-.33a.42.42,0,0,1,.15-.82l1.87.33a.42.42,0,0,1,.33.49A.41.41,0,0,1,65.41,40.41Z"/><path class="cls-2" d="M5.12,35H3.22a.42.42,0,0,1-.41-.42.41.41,0,0,1,.41-.41h1.9a.41.41,0,0,1,.42.41A.42.42,0,0,1,5.12,35Z"/><path class="cls-2" d="M65.88,35H64a.41.41,0,0,1-.41-.42.41.41,0,0,1,.41-.41h1.9a.41.41,0,0,1,.42.41A.42.42,0,0,1,65.88,35Z"/><path class="cls-2" d="M3.7,40.41a.42.42,0,0,1-.07-.83l1.87-.33a.42.42,0,0,1,.48.34.41.41,0,0,1-.34.48l-1.87.33Z"/><path class="cls-2" d="M63.53,29.86a.42.42,0,0,1-.07-.83l1.87-.33a.42.42,0,0,1,.15.82l-1.87.33Z"/><path class="cls-2" d="M5.11,45.68a.41.41,0,0,1-.39-.27A.42.42,0,0,1,5,44.88l1.79-.65A.41.41,0,1,1,7,45l-1.78.65A.39.39,0,0,1,5.11,45.68Z"/><path class="cls-2" d="M62.21,24.9a.41.41,0,0,1-.15-.8l1.79-.65a.41.41,0,0,1,.28.78l-1.78.65A.36.36,0,0,1,62.21,24.9Z"/><path class="cls-2" d="M7.42,50.63a.41.41,0,0,1-.36-.21.42.42,0,0,1,.15-.56l1.65-1a.41.41,0,0,1,.57.15.43.43,0,0,1-.15.57l-1.65.95A.54.54,0,0,1,7.42,50.63Z"/><path class="cls-2" d="M60,20.25a.42.42,0,0,1-.36-.2.41.41,0,0,1,.15-.57l1.65-.95a.4.4,0,0,1,.56.15.41.41,0,0,1-.15.57l-1.64.95A.41.41,0,0,1,60,20.25Z"/><path class="cls-2" d="M10.55,55.11a.4.4,0,0,1-.31-.15.41.41,0,0,1,0-.59l1.45-1.22a.42.42,0,0,1,.54.64L10.82,55A.45.45,0,0,1,10.55,55.11Z"/><path class="cls-2" d="M57.1,16.05a.41.41,0,0,1-.27-.73l1.45-1.22a.41.41,0,1,1,.54.63L57.36,16A.41.41,0,0,1,57.1,16.05Z"/><path class="cls-2" d="M14.42,59a.39.39,0,0,1-.27-.1.41.41,0,0,1-.05-.59l1.22-1.45a.4.4,0,0,1,.58,0,.41.41,0,0,1,.06.58l-1.23,1.46A.4.4,0,0,1,14.42,59Z"/><path class="cls-2" d="M53.47,12.42a.44.44,0,0,1-.27-.09.42.42,0,0,1-.05-.59l1.22-1.45a.42.42,0,0,1,.64.53l-1.22,1.46A.43.43,0,0,1,53.47,12.42Z"/><path class="cls-2" d="M18.89,62.1a.42.42,0,0,1-.21-.06.4.4,0,0,1-.15-.56l.95-1.65a.41.41,0,0,1,.57-.15.42.42,0,0,1,.15.57l-.95,1.64A.43.43,0,0,1,18.89,62.1Z"/><path class="cls-2" d="M49.27,9.48a.5.5,0,0,1-.21-.05.41.41,0,0,1-.15-.57l1-1.65a.42.42,0,0,1,.56-.15.43.43,0,0,1,.16.57l-.95,1.65A.42.42,0,0,1,49.27,9.48Z"/><path class="cls-2" d="M23.84,64.41a.32.32,0,0,1-.14,0,.41.41,0,0,1-.25-.53l.65-1.79a.41.41,0,0,1,.53-.24.4.4,0,0,1,.25.53l-.65,1.78A.42.42,0,0,1,23.84,64.41Z"/><path class="cls-2" d="M44.62,7.31a.32.32,0,0,1-.14,0,.41.41,0,0,1-.25-.53L44.88,5a.42.42,0,0,1,.53-.25.42.42,0,0,1,.25.54L45,7A.41.41,0,0,1,44.62,7.31Z"/><path class="cls-2" d="M29.11,65.82H29a.41.41,0,0,1-.34-.48L29,63.46a.42.42,0,0,1,.49-.33.41.41,0,0,1,.33.48l-.33,1.87A.41.41,0,0,1,29.11,65.82Z"/><path class="cls-2" d="M39.66,6h-.07a.42.42,0,0,1-.34-.48l.33-1.87a.42.42,0,1,1,.82.14l-.33,1.87A.41.41,0,0,1,39.66,6Z"/><path class="cls-2" d="M32.26,8.72a.42.42,0,0,1-.42-.38l-.43-5a.42.42,0,0,1,.83-.07l.43,5a.42.42,0,0,1-.38.45Z"/><path class="cls-2" d="M37.28,66.18a.42.42,0,0,1-.41-.38l-.43-5a.41.41,0,1,1,.82-.07l.44,5a.42.42,0,0,1-.38.45Z"/><path class="cls-2" d="M27.73,9.52a.41.41,0,0,1-.4-.31L26,4.4a.42.42,0,0,1,.3-.51.42.42,0,0,1,.51.29L28.14,9a.43.43,0,0,1-.3.51Z"/><path class="cls-2" d="M42.66,65.23a.41.41,0,0,1-.4-.31L41,60.11a.42.42,0,0,1,.29-.51.41.41,0,0,1,.51.29l1.29,4.82a.4.4,0,0,1-.29.5Z"/><path class="cls-2" d="M23.42,11.09a.42.42,0,0,1-.38-.24l-2.1-4.51a.42.42,0,0,1,.2-.56.43.43,0,0,1,.55.2L23.8,10.5a.42.42,0,0,1-.21.55A.33.33,0,0,1,23.42,11.09Z"/><path class="cls-2" d="M47.79,63.36a.41.41,0,0,1-.37-.24l-2.11-4.51a.42.42,0,1,1,.75-.36l2.11,4.52a.41.41,0,0,1-.2.55A.39.39,0,0,1,47.79,63.36Z"/><path class="cls-2" d="M19.44,13.39a.41.41,0,0,1-.34-.18L16.24,9.13a.42.42,0,0,1,.11-.58.41.41,0,0,1,.57.1l2.86,4.08a.42.42,0,0,1-.1.58A.43.43,0,0,1,19.44,13.39Z"/><path class="cls-2" d="M52.52,60.63a.41.41,0,0,1-.34-.18l-2.86-4.08a.42.42,0,0,1,.11-.58.41.41,0,0,1,.57.11L52.86,60a.41.41,0,0,1-.34.65Z"/><path class="cls-2" d="M15.92,16.34a.42.42,0,0,1-.29-.12l-3.52-3.53a.41.41,0,1,1,.58-.58l3.53,3.52a.42.42,0,0,1-.3.71Z"/><path class="cls-2" d="M56.71,57.12a.42.42,0,0,1-.3-.12l-3.52-3.52a.42.42,0,0,1,.59-.59L57,56.41A.42.42,0,0,1,57,57,.42.42,0,0,1,56.71,57.12Z"/><path class="cls-2" d="M13,19.86a.46.46,0,0,1-.24-.08L8.65,16.92a.41.41,0,0,1-.1-.57.42.42,0,0,1,.58-.11l4.08,2.86a.42.42,0,0,1,.1.58A.41.41,0,0,1,13,19.86Z"/><path class="cls-2" d="M60.22,52.94a.41.41,0,0,1-.24-.08L55.9,50a.41.41,0,0,1-.11-.57.42.42,0,0,1,.58-.11l4.08,2.86a.42.42,0,0,1,.11.58A.41.41,0,0,1,60.22,52.94Z"/><path class="cls-2" d="M10.68,23.83a.57.57,0,0,1-.18,0L6,21.69a.43.43,0,0,1-.2-.55.42.42,0,0,1,.56-.2L10.85,23a.41.41,0,0,1,.2.55A.4.4,0,0,1,10.68,23.83Z"/><path class="cls-2" d="M63,48.21a.39.39,0,0,1-.18,0l-4.52-2.11a.42.42,0,1,1,.36-.75l4.51,2.11a.41.41,0,0,1,.2.55A.41.41,0,0,1,63,48.21Z"/><path class="cls-2" d="M9.11,28.15H9L4.18,26.85a.42.42,0,0,1-.29-.51A.42.42,0,0,1,4.4,26l4.81,1.29a.42.42,0,0,1,.3.51A.41.41,0,0,1,9.11,28.15Z"/><path class="cls-2" d="M64.81,43.08l-.1,0-4.82-1.29a.41.41,0,0,1-.29-.51.42.42,0,0,1,.51-.29l4.81,1.29a.42.42,0,0,1,.29.51A.41.41,0,0,1,64.81,43.08Z"/><path class="cls-2" d="M8.31,32.67h0l-5-.43a.42.42,0,0,1-.38-.45.42.42,0,0,1,.45-.38l5,.43a.42.42,0,0,1,0,.83Z"/><path class="cls-2" d="M65.76,37.7h0l-5-.44a.42.42,0,0,1-.38-.45.41.41,0,0,1,.45-.37l5,.43a.42.42,0,0,1,0,.83Z"/><path class="cls-2" d="M3.34,37.7a.42.42,0,0,1,0-.83l5-.43a.41.41,0,0,1,.45.37.42.42,0,0,1-.38.45Z"/><path class="cls-2" d="M60.8,32.67a.42.42,0,0,1,0-.83l5-.43a.42.42,0,0,1,.45.38.42.42,0,0,1-.38.45Z"/><path class="cls-2" d="M4.29,43.08a.43.43,0,0,1-.4-.31.42.42,0,0,1,.29-.51L9,41a.41.41,0,1,1,.21.8L4.4,43.06Z"/><path class="cls-2" d="M60,28.15a.42.42,0,0,1-.11-.82L64.71,26a.42.42,0,0,1,.51.3.43.43,0,0,1-.3.51l-4.81,1.29Z"/><path class="cls-2" d="M6.16,48.21A.42.42,0,0,1,5.78,48a.42.42,0,0,1,.2-.55l4.52-2.11a.41.41,0,1,1,.35.75L6.34,48.17A.39.39,0,0,1,6.16,48.21Z"/><path class="cls-2" d="M58.43,23.83a.4.4,0,0,1-.38-.24.43.43,0,0,1,.2-.55l4.52-2.1a.41.41,0,0,1,.35.75L58.61,23.8A.57.57,0,0,1,58.43,23.83Z"/><path class="cls-2" d="M8.89,52.94a.41.41,0,0,1-.34-.18.42.42,0,0,1,.1-.58l4.08-2.86a.42.42,0,0,1,.58.11.41.41,0,0,1-.1.57L9.13,52.86A.43.43,0,0,1,8.89,52.94Z"/><path class="cls-2" d="M56.13,19.86a.41.41,0,0,1-.34-.18.42.42,0,0,1,.11-.58L60,16.24a.42.42,0,0,1,.58.11.41.41,0,0,1-.11.57l-4.08,2.86A.41.41,0,0,1,56.13,19.86Z"/><path class="cls-2" d="M12.4,57.12a.4.4,0,0,1-.29-.12.41.41,0,0,1,0-.59l3.52-3.52a.42.42,0,0,1,.59.59L12.69,57A.4.4,0,0,1,12.4,57.12Z"/><path class="cls-2" d="M53.18,16.34a.42.42,0,0,1-.29-.12.42.42,0,0,1,0-.59l3.52-3.52a.41.41,0,0,1,.59,0,.41.41,0,0,1,0,.58l-3.52,3.53A.44.44,0,0,1,53.18,16.34Z"/><path class="cls-2" d="M16.58,60.63a.39.39,0,0,1-.23-.07.42.42,0,0,1-.11-.58L19.1,55.9a.41.41,0,1,1,.68.47l-2.86,4.08A.41.41,0,0,1,16.58,60.63Z"/><path class="cls-2" d="M49.66,13.39a.4.4,0,0,1-.23-.08.42.42,0,0,1-.11-.58l2.86-4.08a.42.42,0,0,1,.68.48L50,13.21A.41.41,0,0,1,49.66,13.39Z"/><path class="cls-2" d="M21.31,63.36a.33.33,0,0,1-.17,0,.41.41,0,0,1-.2-.55L23,58.25a.43.43,0,0,1,.55-.2.42.42,0,0,1,.21.55l-2.11,4.52A.42.42,0,0,1,21.31,63.36Z"/><path class="cls-2" d="M45.69,11.09a.39.39,0,0,1-.18,0,.41.41,0,0,1-.2-.55L47.42,6a.42.42,0,1,1,.75.36l-2.11,4.51A.41.41,0,0,1,45.69,11.09Z"/><path class="cls-2" d="M26.44,65.23l-.1,0a.41.41,0,0,1-.3-.5l1.29-4.82a.42.42,0,0,1,.51-.29.43.43,0,0,1,.3.51l-1.29,4.81A.42.42,0,0,1,26.44,65.23Z"/><path class="cls-2" d="M41.37,9.52h-.11A.42.42,0,0,1,41,9l1.29-4.82a.41.41,0,1,1,.8.22L41.77,9.21A.41.41,0,0,1,41.37,9.52Z"/><path class="cls-2" d="M31.82,66.18h0a.43.43,0,0,1-.38-.45l.43-5a.42.42,0,0,1,.45-.38.42.42,0,0,1,.38.45l-.43,5A.42.42,0,0,1,31.82,66.18Z"/><path class="cls-2" d="M36.85,8.72h0a.41.41,0,0,1-.37-.45l.43-5a.42.42,0,1,1,.83.07l-.44,5A.41.41,0,0,1,36.85,8.72Z"/><polygon class="cls-2" points="38.67 38.67 57.02 12.09 30.44 30.44 12.09 57.02 38.67 38.67"/><polygon class="cls-3" points="30.44 30.44 38.67 38.67 57.02 12.09 30.44 30.44"/></g></g></svg>