<svg xmlns="http://www.w3.org/2000/svg" xmlns:xlink="http://www.w3.org/1999/xlink" viewBox="0 0 68.82 68.1"><defs><style>.cls-1{fill:#fff;}.cls-2{fill:url(#linear-gradient);}</style><linearGradient id="linear-gradient" x1="34.41" x2="34.41" y2="50.76" gradientUnits="userSpaceOnUse"><stop offset="0" stop-color="#d90000"/><stop offset="0.5" stop-color="#ff8400"/><stop offset="1" stop-color="#fd0"/></linearGradient></defs><g id="Layer_2" data-name="Layer 2"><g id="Layer_1-2" data-name="Layer 1"><path class="cls-1" d="M2.29,32.83v8.89A2.3,2.3,0,0,0,4.59,44a1.15,1.15,0,1,1,0,2.29A4.6,4.6,0,0,1,0,41.72V32.83a4.6,4.6,0,0,1,4.59-4.59,1.15,1.15,0,0,1,0,2.3A2.3,2.3,0,0,0,2.29,32.83Z"/><path class="cls-1" d="M64.23,28.24a1.15,1.15,0,0,0,0,2.3,2.3,2.3,0,0,1,2.3,2.29v8.89a2.3,2.3,0,0,1-2.3,2.3,1.15,1.15,0,0,0,0,2.29,4.6,4.6,0,0,0,4.59-4.59V32.83A4.6,4.6,0,0,0,64.23,28.24Z"/><path class="cls-2" d="M56.78,23.81V22.37a22.37,22.37,0,0,0-44.74,0v1.44a4.6,4.6,0,0,0-4.3,4.58V46.17a4.6,4.6,0,0,0,4.59,4.59h2.3a4.59,4.59,0,0,0,4.58-4.59V28.39a4.59,4.59,0,0,0-4.58-4.59h-.29V22.37a20.08,20.08,0,1,1,40.15,0V23.8H54.2a4.6,4.6,0,0,0-4.59,4.59V46.17a4.6,4.6,0,0,0,4.59,4.59h2.29a4.6,4.6,0,0,0,4.59-4.59V28.39A4.59,4.59,0,0,0,56.78,23.81ZM14.63,26.09a2.3,2.3,0,0,1,2.29,2.3V46.17a2.3,2.3,0,0,1-2.29,2.29h-2.3A2.3,2.3,0,0,1,10,46.17V28.39a2.3,2.3,0,0,1,2.29-2.3ZM58.79,46.17a2.3,2.3,0,0,1-2.3,2.29H54.2a2.3,2.3,0,0,1-2.3-2.29V28.39a2.3,2.3,0,0,1,2.3-2.3h2.29a2.3,2.3,0,0,1,2.3,2.3Z"/><path class="cls-1" d="M64.38,49.46a1.16,1.16,0,0,0-1.15,1.15A11.48,11.48,0,0,1,51.76,62.08H49.62a4.87,4.87,0,1,0,0,2.3h2.14A13.79,13.79,0,0,0,65.53,50.61,1.16,1.16,0,0,0,64.38,49.46ZM44.88,65.81a2.58,2.58,0,1,1,2.58-2.58A2.59,2.59,0,0,1,44.88,65.81Z"/><path class="cls-1" d="M44.69,38.34a1.15,1.15,0,1,0-2.2-.64,8.41,8.41,0,0,1-16.15,0,1.15,1.15,0,0,0-2.21.64,10.71,10.71,0,0,0,20.56,0Z"/><path class="cls-1" d="M27.15,27.15a2.27,2.27,0,1,1-2.27,2.27A2.27,2.27,0,0,1,27.15,27.15Z"/><path class="cls-1" d="M27.12,29.42s.05,0,.05,0A0,0,0,0,0,27.12,29.42Z"/><path class="cls-1" d="M41.68,27.22a2.2,2.2,0,1,1-2.2,2.2A2.19,2.19,0,0,1,41.68,27.22Z"/><path class="cls-1" d="M41.58,29.42a.1.1,0,0,0,.19,0A.1.1,0,1,0,41.58,29.42Z"/></g></g></svg>