<svg xmlns="http://www.w3.org/2000/svg" xmlns:xlink="http://www.w3.org/1999/xlink" viewBox="0 0 99.85 99.85"><defs><style>.cls-1{fill:#fff;}.cls-2{fill:url(#linear-gradient);}.cls-3{fill:url(#linear-gradient-2);}</style><linearGradient id="linear-gradient" x1="16.55" y1="40.27" x2="40.98" y2="40.27" gradientUnits="userSpaceOnUse"><stop offset="0" stop-color="#d90000"/><stop offset="0.5" stop-color="#ff8400"/><stop offset="1" stop-color="#fd0"/></linearGradient><linearGradient id="linear-gradient-2" x1="92.72" y1="56.24" x2="60.71" y2="56.24" xlink:href="#linear-gradient"/></defs><g id="Layer_2" data-name="Layer 2"><g id="Layer_1-2" data-name="Layer 1"><path class="cls-1" d="M45.89,68.54H12a2,2,0,0,0,0,4.08H45.89a2,2,0,1,0,0-4.08Z"/><path class="cls-2" d="M38.47,45.84a1.95,1.95,0,0,0-.83-3.71h-.8L30.55,27.79a2,2,0,0,0-3.57,0L20.69,42.13h-.8a1.95,1.95,0,0,0-.83,3.71l-2.34,5.34a1.95,1.95,0,1,0,3.57,1.57L23.24,46H34.29l3,6.72a1.95,1.95,0,1,0,3.57-1.57ZM25,42.13l3.82-8.7,3.81,8.7Z"/><path class="cls-3" d="M74.17,63.41A62.27,62.27,0,0,0,87.79,74.69a2,2,0,0,0,1.06.3,2,2,0,0,0,1.06-3.77A58.21,58.21,0,0,1,76.83,60.27a54.86,54.86,0,0,0,7.84-13.2h6a2,2,0,1,0,0-4.07H76.07V39.53a2,2,0,0,0-4.07,0V43H60.71L69,68.44A59.92,59.92,0,0,0,74.17,63.41Zm6.06-16.34a53,53,0,0,1-6.07,10c-.88-1.16-1.65-2.25-2.32-3.26a51.22,51.22,0,0,1-3.74-6.71ZM67.66,64.21,62.05,47.07h1.61a51.48,51.48,0,0,0,4.69,8.81c.87,1.34,1.92,2.82,3.16,4.38Q69.77,62.23,67.66,64.21Z"/><path class="cls-1" d="M90.27,18.57H52.71L47.09,1.4A2,2,0,0,0,45.15,0H9.58A9.59,9.59,0,0,0,0,9.58V71.7a9.59,9.59,0,0,0,9.58,9.58H47.05l5.72,17.18a2,2,0,0,0,1.93,1.39H90.27a9.58,9.58,0,0,0,9.58-9.58V28.16A9.59,9.59,0,0,0,90.27,18.57ZM9.58,77.2a5.51,5.51,0,0,1-5.5-5.5V9.58a5.51,5.51,0,0,1,5.5-5.5h34.1L67.62,77.2Zm41.77,4.08H66L55.49,93.73Zm38.92,14.5H59.1L72,80.6a2,2,0,0,0,.53-1.36,2.14,2.14,0,0,0-.15-.76L54.05,22.65H90.27a5.51,5.51,0,0,1,5.51,5.51V90.27A5.51,5.51,0,0,1,90.27,95.78Z"/></g></g></svg>