<svg xmlns="http://www.w3.org/2000/svg" xmlns:xlink="http://www.w3.org/1999/xlink" viewBox="0 0 51.6 51.6"><defs><style>.cls-1{fill:#fff;}.cls-2{fill:url(#linear-gradient);}</style><linearGradient id="linear-gradient" x1="26.8" y1="51.6" x2="26.8" y2="21" gradientUnits="userSpaceOnUse"><stop offset="0" stop-color="#d90000"/><stop offset="0.5" stop-color="#ff8400"/><stop offset="1" stop-color="#fd0"/></linearGradient></defs><g id="Layer_2" data-name="Layer 2"><g id="Layer_1-2" data-name="Layer 1"><path class="cls-1" d="M5.4,30.59A2.25,2.25,0,0,0,7,30a2.35,2.35,0,0,0,.73-2,19.12,19.12,0,0,1-.14-2.2,18.17,18.17,0,0,1,29.83-14l-1.05,1.06a2.38,2.38,0,0,0-.58,2.35,2.42,2.42,0,0,0,1.72,1.54c.43.1,8.62,2.74,9.2,3l.18-.38-.11.42a2.33,2.33,0,0,0,.38.08l.58.11,0-.15a2.27,2.27,0,0,0,1.06-.53,2.35,2.35,0,0,0,.78-2.21c-.06-.28-2.18-10.93-2.18-10.93l-.08,0a2.29,2.29,0,0,0-3.7-.63l-.86.84A25.82,25.82,0,0,0,0,25.86c0,.73,0,1.39.08,2a2.31,2.31,0,0,0,1.85,2.06l3,.6A2.4,2.4,0,0,0,5.4,30.59ZM1.78,27.73A18.63,18.63,0,0,1,1.7,25.8,24.12,24.12,0,0,1,42.19,8.11l.59.55,2-2a.64.64,0,0,1,.61-.17.63.63,0,0,1,.42.48l.08,0c.1,1,.61,3.59,2,10.41a.66.66,0,0,1-.22.61.54.54,0,0,1-.4.15v0l-.1,0v0c-.7-.31-2-.74-4.45-1.53-.47-.15-4.6-1.49-4.87-1.54a.67.67,0,0,1-.48-.39.66.66,0,0,1,.17-.64l2.3-2.35-.65-.59A19.87,19.87,0,0,0,5.85,25.8,20.46,20.46,0,0,0,6,28.2a.65.65,0,0,1-.19.53.67.67,0,0,1-.54.15l-3-.6A.62.62,0,0,1,1.78,27.73Z"/><path class="cls-2" d="M51.52,23.72a2.32,2.32,0,0,0-1.84-2.06l-3-.62a2.32,2.32,0,0,0-2.76,2.55,19.42,19.42,0,0,1,.14,2.21,18.15,18.15,0,0,1-29.82,14l1-1a2.34,2.34,0,0,0,.58-2.34,2.37,2.37,0,0,0-1.71-1.54c-.39-.1-9.4-3.06-9.4-3.06a2.23,2.23,0,0,0-2,.62A2.34,2.34,0,0,0,2,34.54L4.21,45.36l.08,0a2.34,2.34,0,0,0,1.47,1.24A2.27,2.27,0,0,0,8,46l.83-.83A25.76,25.76,0,0,0,51.6,25.71C51.6,25,51.58,24.37,51.52,23.72ZM25.8,49.9A24.34,24.34,0,0,1,9.38,43.4l-.6-.57-2,2a.55.55,0,0,1-.58.13.65.65,0,0,1-.42-.47l-.09,0c-.1-1-.61-3.57-2-10.32a.67.67,0,0,1,.2-.58.6.6,0,0,1,.5-.16c4.13,1.37,9.09,3,9.35,3.05a.6.6,0,0,1,.32,1l-2.31,2.31.65.6A19.85,19.85,0,0,0,45.75,25.8a20.93,20.93,0,0,0-.15-2.42.58.58,0,0,1,.19-.52.6.6,0,0,1,.54-.15l3,.61a.63.63,0,0,1,.49.55c.05.59.07,1.2.07,1.93A24.13,24.13,0,0,1,25.8,49.9Z"/></g></g></svg>