<svg xmlns="http://www.w3.org/2000/svg" xmlns:xlink="http://www.w3.org/1999/xlink" viewBox="0 0 421.98 108.49"><defs><style>.cls-1{fill:url(#linear-gradient);}</style><linearGradient id="linear-gradient" y1="54.24" x2="421.98" y2="54.24" gradientUnits="userSpaceOnUse"><stop offset="0" stop-color="#d90000"/><stop offset="0.5" stop-color="#ff8400"/><stop offset="1" stop-color="#fd0"/></linearGradient></defs><g id="Layer_2" data-name="Layer 2"><g id="Layer_1-2" data-name="Layer 1"><path class="cls-1" d="M413.46,34.37A8.52,8.52,0,0,0,406,38.89H392.06a4,4,0,0,0-2.89,1.24l-18.24,19.1L341.61,21.72a4,4,0,0,0-6.52.3L306,67.24,267.27,2a4,4,0,0,0-7,.18L211,95.89,161.69,2.14a4,4,0,0,0-7-.18L116,67.24,86.89,22a4,4,0,0,0-6.52-.3L51.06,59.23,32.81,40.13a4,4,0,0,0-2.89-1.24H16a8.53,8.53,0,1,0,0,8H28.21L48.47,68.1a4,4,0,0,0,6-.3l28.7-36.72L112.74,77a4,4,0,0,0,6.81-.12l38.39-64.7,49.51,94.16a4,4,0,0,0,7.08,0L264,12.19l38.39,64.7a4,4,0,0,0,6.81.12l29.53-45.93,28.7,36.72a4,4,0,0,0,2.95,1.53,4,4,0,0,0,3.09-1.23l20.27-21.21H406a8.52,8.52,0,1,0,7.51-12.52Z"/></g></g></svg>