<svg xmlns="http://www.w3.org/2000/svg" viewBox="0 0 169.18 52.68"><defs><style>.cls-1{fill:#fff;}</style></defs><g id="Layer_2" data-name="Layer 2"><g id="Layer_1-2" data-name="Layer 1"><g id="Layer_2-2" data-name="Layer 2"><g id="Layer_1-2-2" data-name="Layer 1-2"><path class="cls-1" d="M0,22.68H14.31c6.69,0,9.51,3.48,9.51,7.89a6.81,6.81,0,0,1-5.09,6.51A6.52,6.52,0,0,1,24,43.75c0,4.67-3,8.14-9.55,8.14H0ZM11.6,34.15c2.41,0,3.55-1.27,3.55-3,0-2-1.47-2.92-3.55-2.92H8.72v5.88ZM8.72,39.83v6h3c3,0,3.55-1.89,3.55-3,0-1.68-1.14-3-3.55-3Z"/><path class="cls-1" d="M26.08,22.68h8.67v19a3.53,3.53,0,1,0,7.06,0v-19h8.67V41.75c0,6.84-5.16,10.93-12.22,10.93-7.65,0-12.18-4.67-12.18-10.93Z"/><polygon class="cls-1" points="71.39 40 71.39 22.68 80.11 22.68 80.11 51.89 71.26 51.89 61.71 35.16 61.71 51.89 53.03 51.89 53.03 22.68 61.88 22.68 71.39 40"/><polygon class="cls-1" points="91.67 40 91.67 51.89 82.99 51.89 82.99 22.68 91.67 22.68 91.67 34.61 99.76 22.68 109.94 22.68 99.22 37.28 109.94 51.89 99.76 51.89 91.67 40"/><polygon class="cls-1" points="120.11 29.19 120.11 34.28 130.25 34.28 130.25 40.5 120.11 40.5 120.11 45.38 130.25 45.38 130.25 51.89 111.43 51.89 111.43 22.68 130.25 22.68 130.25 29.19 120.11 29.19"/><path class="cls-1" d="M132.56,22.68h14a10.63,10.63,0,0,1,11,10.25c0,.21,0,.42,0,.64A10.65,10.65,0,0,1,152.22,43l5.84,8.89H147.83l-5-7.47h-1.62v7.47h-8.68Zm12.26,15a3.9,3.9,0,0,0,3.9-3.89,1.93,1.93,0,0,0,0-.24,3.85,3.85,0,0,0-3.56-4.12h-3.91v8.26Z"/><path class="cls-1" d="M159,47.38a5.09,5.09,0,1,1,5.18,5h-.13a5,5,0,0,1-5.05-5Z"/></g></g><path class="cls-1" d="M3.79,6.19V8.28A4.63,4.63,0,0,1,8,5.88a3.72,3.72,0,0,1,3.81,2.38,5.36,5.36,0,0,1,4.6-2.38,4.39,4.39,0,0,1,3.21,1.23,5.66,5.66,0,0,1,1.28,4v8.75H17.11V11.52C17.11,9.74,16.33,9,15,9a2.52,2.52,0,0,0-2.64,2.79v8.07H8.57V11.52C8.57,9.74,7.76,9,6.43,9a2.52,2.52,0,0,0-2.64,2.79v8.07H0V6.19Z"/><path class="cls-1" d="M23.84,19.17a3.71,3.71,0,0,1-1.36-3.1,3.66,3.66,0,0,1,2-3.4,10.67,10.67,0,0,1,5.12-1h1.54v-.55c0-1.65-.47-2.51-2.22-2.51a2.07,2.07,0,0,0-2.32,1.93H23A4.57,4.57,0,0,1,24.91,7a7.32,7.32,0,0,1,4.23-1.12A6.62,6.62,0,0,1,33.27,7,4.69,4.69,0,0,1,34.86,11v8.9H31.18V18.21a4.59,4.59,0,0,1-4.13,1.93A5.09,5.09,0,0,1,23.84,19.17Zm7.28-4.1V13.92H29.66c-2.19,0-3.47.47-3.47,1.94,0,1,.6,1.64,2,1.64C29.84,17.5,31.12,16.61,31.12,15.07Z"/><path class="cls-1" d="M38.23,18.36a7.32,7.32,0,0,1-1.72-5.14V13a7.88,7.88,0,0,1,1.72-5.25,5.55,5.55,0,0,1,4.28-1.88,4.52,4.52,0,0,1,4.31,2.35V0h3.77V19.85H46.82V17.58a4.94,4.94,0,0,1-4.38,2.56A5.51,5.51,0,0,1,38.23,18.36Zm8.7-5.27v-.21c0-2.72-1.18-4.1-3.27-4.1s-3.29,1.43-3.29,4.15v.21c0,2.72,1.31,4.05,3.19,4.05S46.93,15.88,46.93,13.09Z"/><path class="cls-1" d="M54.33,18.29a6.68,6.68,0,0,1-2-5.1V13a7,7,0,0,1,2-5.17,7,7,0,0,1,5-1.93A6.75,6.75,0,0,1,64,7.52a6.91,6.91,0,0,1,2,5.31v1H56.14c.1,2.3,1.3,3.58,3.39,3.58,1.78,0,2.62-.76,2.85-1.91H66c-.44,3-2.77,4.6-6.53,4.6A7.16,7.16,0,0,1,54.33,18.29Zm5-9.8c-1.69,0-2.84,1.1-3.13,3.06H62.3C62.17,9.46,61.13,8.49,59.32,8.49Z"/><path class="cls-1" d="M72.31,2.27A2.05,2.05,0,0,1,74.45.21a2.08,2.08,0,0,1,2.17,2.06,2.08,2.08,0,0,1-2.17,2.07A2.05,2.05,0,0,1,72.31,2.27Zm4,3.92V19.85H72.6V6.19Z"/><path class="cls-1" d="M82.62,6.19V8.36a4.71,4.71,0,0,1,4.44-2.48,4.54,4.54,0,0,1,3.32,1.25,5.74,5.74,0,0,1,1.28,4v8.7H87.87V11.7c0-1.88-.73-2.74-2.4-2.74a2.69,2.69,0,0,0-2.85,3v7.89H78.83V6.19Z"/></g></g></svg>